<?xml version="1.0" standalone="no"?><!DOCTYPE svg PUBLIC "-//W3C//DTD SVG 1.1//EN" "http://www.w3.org/Graphics/SVG/1.1/DTD/svg11.dtd"><svg t="1699283827617" class="icon" viewBox="0 0 1148 1024" version="1.1" xmlns="http://www.w3.org/2000/svg" p-id="2487" xmlns:xlink="http://www.w3.org/1999/xlink" width="224.21875" height="200"><path d="M597.189763 515.210434h3.595686c2.311512-3.082017 4.623025-6.164033 6.677702-9.502884h-10.273388v9.502884zM139.510304 573.511914c11.557562-7.705041 24.142463-12.841736 37.497869-15.666918h-133.554051c-2.825182 4.623025-5.650364 9.502884-7.961876 14.639579-1.027339 2.568347-3.082017 4.623025-5.907199 5.650364-12.071232 4.109355-20.803612 11.043893-25.169801 21.317281-1.541008 3.338851-2.568347 7.191372-3.082017 11.300727-2.311512 18.235265-3.595686 37.241033 13.61224 50.082769 6.934537 4.87986 14.896413 7.961876 23.115124 8.989215 15.410083 1.284174 30.820166 0.513669 47.514422 0.513669v-0.513669h0.256835c0.513669-15.410083 3.338851-29.535992 8.475545-42.634562 8.475546-21.830951 23.628794-39.552546 45.202909-53.678455z m61.126662 2.568347c-47.257587 0.513669-93.487835 38.011537-93.74467 93.487835-0.256835 51.366943 43.405066 92.974166 95.542513 92.717332 52.907951-0.256835 95.028844-42.120893 94.001505-95.542514-1.027339-51.880612-45.973414-91.176323-95.799348-90.662653z m740.197642 0.513669c-47.514422 2.825182-88.351141 43.661901-87.580637 94.001505 0.770504 49.312265 42.120893 92.460497 95.285679 91.433158 53.42162-0.770504 94.25834-42.377728 93.74467-94.515174-0.256835-48.798595-43.148232-94.772009-101.449712-90.919489z m-57.78781-1.541008c12.071232-8.475546 25.683471-14.382744 40.066215-17.46476h-141.515926v-22.85829h349.038374v-0.256835c0-2.825182 0.256835-5.393529 0.256835-8.21871 0.513669-13.355405 1.541008-26.453975 2.568347-39.809381 0.770504-13.61224-8.989215-28.251818-22.601455-31.333835-23.628794-5.393529-47.000752-10.787058-70.629546-15.923752-19.262603-4.109355-34.159017-15.923752-50.082769-26.197141-40.066215-25.940306-79.618761-52.651116-119.428141-79.105091-29.792827-20.289942-63.951843-26.71081-99.395034-27.481315-46.743918-1.541008-93.487835-3.338851-140.231753-3.338851-41.350389 0-82.957612 1.797843-123.794332 9.502884-31.333835 5.907198-59.328819 20.033108-86.810133 34.929521-45.202909 24.399298-87.066968 53.42162-128.674191 82.957613-10.530223 7.448207-24.142463 11.814397-36.727364 16.180587-40.066215 13.869074-80.389265 26.453975-120.45548 39.80938-30.049661 10.016554-54.962629 26.197141-74.225232 48.284926h420.18159v22.85829H225.036264c47.257587 9.759719 89.892149 48.284926 93.231001 111.7231h513.412591c1.797843-39.295711 17.721595-71.40005 51.366942-94.25834z m-202.899423-219.593679c0.256835-11.814397 4.87986-16.437422 16.951091-15.923753 27.22448 1.284174 54.192124 2.568347 81.159769 4.623025 16.180587 1.284174 32.104339 4.87986 46.230249 13.098571 35.186356 20.033108 67.547529 44.946075 96.056182 73.197893 2.825182 2.825182 3.595686 7.705041 5.393529 11.814396-4.109355 1.541008-7.961876 4.623025-12.328066 4.623025-35.95686 0.513669-72.170554 0.513669-107.870579 0.51367h-108.127415c-12.841736 0-17.46476-4.36619-17.721595-17.207926-0.256835-24.912967 0-49.825934 0.256835-74.738901z m-191.598696 91.689992c-42.377728 0-85.01229 0.256835-127.390017-0.256835-4.87986 0-9.759719-3.082017-14.639579-4.623025 3.338851-3.852521 5.907198-8.475546 10.016554-11.043892 20.803612-13.355405 41.350389-26.967645 62.66767-39.295711 28.251818-16.437422 56.246802-33.645347 88.607976-41.350389 36.984199-9.24605 74.995736-9.502884 113.007273-10.016554 7.961876 0 11.557562 4.87986 11.557562 13.61224 0.256835 25.683471 0 51.366943 0 77.050414 0 11.814397-4.36619 15.923752-16.694256 15.923752h-127.133183z m219.59368 200.331076c-12.071232-7.191372-21.830951-16.437422-29.792827-27.481314-10.016554 11.300727-22.601455 20.803612-37.754703 28.251818-2.568347-6.420868-10.530223-19.262603-15.666917-25.169802 16.694256-6.934537 29.279157-16.694256 38.525207-29.279157-4.109355-9.759719-7.705041-20.289942-10.787058-31.59067-1.797843 3.338851-3.852521 6.164033-6.164033 8.989215-2.825182-3.338851-8.475546-8.73238-13.869075-13.355405-7.191372 8.218711-15.923752 16.951091-24.656132 24.399298v3.338851c10.273389-0.513669 20.546777-1.284174 30.820165-2.054677v23.371958c-10.273389 0.770504-20.546777 1.797843-30.820165 2.568348v12.841735c0 11.300727-1.797843 17.46476-9.502885 21.060447-7.448207 3.595686-16.694256 3.852521-28.765488 3.85252-1.027339-6.934537-4.36619-16.694256-7.448206-23.115124 6.164033 0.256835 14.639579 0.256835 16.694256 0.256835 2.568347 0 3.338851-0.513669 3.338851-2.568347v-10.273389l-34.672686 2.568347-2.568347-24.399297c10.530223-0.513669 23.371959-1.284174 37.497868-2.311513v-8.989215c4.109355-3.082017 8.475546-6.934537 12.584901-11.300727h-7.961876c-8.218711 6.934537-17.207926 12.841736-26.453975 18.235265-3.595686-5.393529-12.841736-16.180587-18.235265-21.060447 6.934537-3.338851 13.869074-7.448207 20.289942-11.814397v-6.420868h8.989215c2.825182-2.311512 5.650364-4.623025 8.218711-6.934537h-34.159017v-23.628793h26.453976V505.964384h-19.519439v-23.115124h19.519439v-15.666917h25.426636v15.666917h15.666918v13.355405c4.36619-7.705041 7.961876-15.923752 11.043892-24.399298l25.426637 7.191372c-5.136694 12.841736-11.043893 25.169802-17.97843 36.213695h6.677702v14.896413c0.513669-1.284174 1.027339-2.568347 1.541009-3.595686 1.797843-4.36619 3.595686-8.73238 5.136694-13.355405v-0.256835l2.311512-6.934537c0-0.256835 0-0.256835 0.256835-0.513669 0.770504-2.311512 1.284174-4.623025 1.797843-6.677703 0-0.513669 0.256835-0.770504 0.256835-1.284173 0.513669-2.054678 1.027339-4.109355 1.541008-6.420868 0.256835-0.770504 0.256835-1.541008 0.51367-2.054678 0.513669-1.797843 0.770504-3.852521 1.284173-5.650363l0.770504-3.852521c0.256835-1.284174 0.513669-2.825182 0.770504-4.109356 0.513669-2.825182 0.770504-5.393529 1.284174-8.21871l27.738149 4.36619c-1.797843 10.273389-3.852521 20.289942-6.164033 30.049661h47.771256v25.426637h-10.787058c-3.595686 26.71081-9.502884 49.05543-19.005768 68.061199 8.218711 12.071232 18.748934 21.830951 31.847504 28.765487-6.420868 5.136694-15.153248 16.180587-19.262603 23.628794zM608.747325 545.773765h5.393529l4.879859-1.284174 6.677703 5.393529c2.825182-3.338851 5.393529-7.191372 7.705041-11.300727h-19.005769c-1.797843 2.568347-3.595686 4.87986-5.650363 7.191372z m538.839227 72.170554c-0.256835-4.623025-0.513669-9.24605-1.027339-13.869074-0.256835-3.338851-1.541008-6.420868-3.85252-8.732381-10.787058-10.530223-11.814397-24.399298-12.328066-37.754702h-159.237522c14.382744 3.082017 27.738149 8.475546 39.552545 16.180586 30.563331 19.776273 51.623777 53.164786 52.651116 94.515175 12.071232 0 23.885628 0.770504 35.443191 0.513669 6.934537 0 13.869074-0.256835 20.803612-1.027339 17.46476-2.054678 28.508653-18.235265 28.508653-35.956859 0-4.623025-0.256835-9.24605-0.51367-13.869075z m-468.209681-57.017306c3.082017-10.273389 5.393529-21.574116 6.677702-34.159017h-15.153248c2.054678 12.071232 4.87986 23.628794 8.475546 34.159017z" fill="#0072FF" p-id="2488"></path></svg>
